<?xml version="1.0" standalone="no"?>
<!DOCTYPE svg PUBLIC "-//W3C//DTD SVG 20010904//EN"
 "http://www.w3.org/TR/2001/REC-SVG-20010904/DTD/svg10.dtd">
<svg version="1.0" xmlns="http://www.w3.org/2000/svg"
 width="300.000000pt" height="300.000000pt" viewBox="0 0 300.000000 300.000000"
 preserveAspectRatio="xMidYMid meet">
<metadata>
Created by potrace 1.11, written by Peter Selinger 2001-2013
</metadata>
<g transform="translate(0.000000,300.000000) scale(0.100000,-0.100000)"
fill="#000000" stroke="none">
<path d="M1201 2657 c-6 -8 -9 -16 -7 -18 3 -2 7 -40 10 -84 l5 -80 -22 36
c-23 37 -44 42 -72 19 -21 -18 -19 -30 13 -63 l27 -29 -52 21 c-72 28 -121 33
-132 12 -14 -27 -2 -39 78 -81 76 -40 181 -131 181 -157 0 -7 4 -13 8 -13 8 0
32 -43 32 -55 0 -3 -13 -11 -30 -20 -32 -17 -39 -49 -20 -86 6 -11 7 -18 2
-17 -31 9 -191 -128 -250 -214 -180 -263 -176 -638 9 -818 88 -85 202 -122
376 -121 l103 1 1 -63 c0 -34 2 -111 5 -172 l5 -110 -47 -22 c-43 -20 -50 -20
-75 -7 -43 22 -110 18 -150 -9 -87 -58 -113 -210 -48 -282 17 -19 17 -22 0
-73 -10 -29 -18 -74 -17 -100 l1 -47 63 -3 c62 -3 62 -3 63 25 1 41 6 64 17
75 7 7 9 -10 8 -46 l-2 -56 342 0 c373 0 351 -4 349 62 -1 49 12 38 21 -17 l6
-45 68 0 c64 0 69 2 72 23 5 32 -18 113 -42 153 l-22 34 25 52 c54 114 6 255
-100 292 -50 18 -112 13 -152 -10 -29 -17 -33 -17 -58 -2 -16 9 -44 19 -65 23
-38 7 -36 2 -54 104 -3 13 -6 77 -8 142 l-4 119 54 24 c125 57 222 145 280
252 130 242 -24 703 -287 857 -54 32 -120 56 -161 59 -21 2 -33 9 -39 25 -5
14 -17 23 -31 24 -53 3 -53 3 -50 39 5 60 32 153 58 205 26 50 78 104 102 105
32 0 4 100 -29 100 -42 0 -94 -54 -143 -145 l-27 -50 7 50 c3 28 13 65 20 84
20 49 17 70 -11 83 -21 10 -28 8 -43 -8 -15 -16 -52 -93 -52 -109 0 -3 0 -17
0 -32 -1 -47 -17 -5 -25 62 -9 83 -10 88 -18 103 -11 16 -52 15 -66 -1z"/>
</g>
</svg>
